<?xml version="1.0" encoding="UTF-8" standalone="no"?>
<!-- Created with Inkscape (http://www.inkscape.org/) -->

<svg
   version="1.1"
   id="svg18"
   width="47.999969"
   height="38.466805"
   viewBox="0 0 11.999993 9.6167009"
   sodipodi:docname="favicon.svg"
   inkscape:export-filename="logo.png"
   inkscape:export-xdpi="1"
   inkscape:export-ydpi="1"
   inkscape:version="1.2.1 (8a69933317, 2022-10-28, custom)"
   xmlns:inkscape="http://www.inkscape.org/namespaces/inkscape"
   xmlns:sodipodi="http://sodipodi.sourceforge.net/DTD/sodipodi-0.dtd"
   xmlns="http://www.w3.org/2000/svg"
   xmlns:svg="http://www.w3.org/2000/svg">
  <style
     id="style182">
    @media (prefers-color-scheme: dark) {
      :root {
        filter: brightness(2);
      }
    }
  </style>
  <defs
     id="defs22">
    <clipPath
       clipPathUnits="userSpaceOnUse"
       id="clipPath7792">
      <rect
         style="fill:#eb417b;fill-opacity:0.681115;stroke:none;stroke-width:0"
         id="rect7794"
         width="3413.8965"
         height="2789.6838"
         x="8.2769747"
         y="299.89493" />
    </clipPath>
    <clipPath
       clipPathUnits="userSpaceOnUse"
       id="clipPath10797">
      <rect
         style="fill:#4aaa00;fill-opacity:0.314064;stroke:none;stroke-width:0"
         id="rect10799"
         width="2417.7812"
         height="1937.2155"
         x="0.12655878"
         y="298.57306" />
    </clipPath>
  </defs>
  <sodipodi:namedview
     id="namedview20"
     pagecolor="#ffffff"
     bordercolor="#000000"
     borderopacity="0.25"
     inkscape:showpageshadow="2"
     inkscape:pageopacity="0.0"
     inkscape:pagecheckerboard="0"
     inkscape:deskcolor="#d1d1d1"
     showgrid="false"
     inkscape:zoom="0.086695085"
     inkscape:cx="3333.5223"
     inkscape:cy="2191.5891"
     inkscape:window-width="1920"
     inkscape:window-height="1048"
     inkscape:window-x="0"
     inkscape:window-y="32"
     inkscape:window-maximized="1"
     inkscape:current-layer="g24" />
  <g
     inkscape:groupmode="layer"
     inkscape:label="Image"
     id="g24"
     transform="translate(-1208.0683,-1266.2325)">
    <path
       style="fill:#fffcf7;fill-opacity:1"
       d="m 340.45001,3079.3377 c 16.8148,-82.9475 -15.20917,-91.5849 -77.59976,-65.3519 -139.06409,-56.448 25.69392,-219.434 79.1345,-150.0143 55.75703,-13.7319 13.27825,133.3229 25.03519,180.4664 -5.18414,13.1379 -4.28745,42.5973 -26.56993,34.8998 z m -35.75,-89.3651 c 114.65145,-47.3946 -67.04617,-195.1694 -68.72701,-52.8494 0.82096,33.1009 34.75264,66.214 68.72701,52.8494 z m 372.16667,89.3607 c 11.56184,-65.5201 -26.70814,-202.4324 20.18891,-221.2408 30.27972,27.0368 120.69325,-47.3397 131.42973,46.6514 30.3058,81.6768 -71.36962,150.5752 -125.66634,85.1502 -8.65662,22.7274 24.35005,108.0892 -25.9523,89.4392 z m 92.52023,-88.9763 c 124.68032,-58.3268 -88.27635,-177.5717 -66.54396,-44.4097 3.08376,29.6272 37.42665,54.2967 66.54396,44.4097 z m -318.7851,25.1573 c -86.02984,-19.6768 -15.21204,-253.8008 -10.0315,-103.9326 -37.06519,114.4725 123.06368,85.1386 86.90467,-14.1463 6.62501,-109.4222 47.23165,29.4957 30.74942,70.0962 6.97859,91.0301 -30.32928,-22.5365 -62.89615,42.1751 l -21.97161,6.2523 z m 769.40839,0.501 c -176.18,-35.3683 34.9882,-283.5602 94.3256,-102.2947 -7.0653,67.6784 -199.3853,-14.9353 -97.981,76.6558 27.9277,24.6924 112.1925,-52.4908 66.0984,8.7312 -18.4502,9.3188 -40.8337,24.1035 -62.443,16.9077 z m 65.6533,-96.7653 c -5.4956,-109.2991 -173.3309,20.9816 -48.5342,6.1064 14.989,-7.6826 36.0892,5.221 48.5342,-6.1064 z m 280.5365,96.0394 c -50.8229,-31.6945 -47.5921,-209.3413 -38.7053,-168.1076 9.9017,-54.9663 39.6811,-67.286 40.6622,1.911 71.3223,8.9624 -47.7592,49.2898 -4.7041,104.8795 -6.4862,49.9006 108.9846,44.0736 2.7472,61.3171 z m -963.3049,-1.9276 c -8.13321,-41.2803 0.32938,-233.6311 26.95613,-122.1222 -17.46093,32.8322 30.27286,128.703 -26.95613,122.1222 z m 268.99921,-8e-4 c 5.6754,-43.2623 -23.6137,-213.8755 35.60185,-133.4976 45.05535,-75.9282 106.75374,43.3631 151.04994,-32.2414 111.8763,-15.5725 32.7809,262.4539 31.1582,100.9311 0.2367,-126.1494 -118.52421,-45.0362 -82.1612,40.6014 -57.58487,83.8427 13.908,-174.0058 -91.31799,-104.659 -43.45559,26.8097 17.686,128.4488 -44.3308,128.8655 z M 35.807,3011.4182 c -5.263571,-96.7072 -31.9016685,-267.301 119.38885,-220.719 86.84563,51.7205 -181.887505,-2.8929 -74.571543,98.5275 40.119693,-16.2195 130.267993,21.1055 43.447673,23.7733 -100.748733,-27.4701 -68.685384,121.5505 18.8885,75.3214 131.24848,26.1238 -90.537273,29.9884 -107.15348,23.0968 z m 1309.393,-78.89 c -7.5665,-42.6158 3.5312,-111.9135 34.1569,-58.4103 75.4274,-57.8832 123.1482,-1.4655 104.9435,76.4047 23.1583,66.8504 -47.1837,80.9712 -25.3112,7.5423 23.4875,-103.9301 -108.532,-95.7735 -86.1132,1.0152 5.9972,114.6793 -45.9776,34.6325 -27.676,-26.5519 z M 602.20001,2805 c 39.09696,-63.2462 20.68356,65.1272 0,0 z m -508,-30.6926 c -131.115959,-6.5749 -56.299153,-164.0674 42.1708,-131.9794 52.04565,-30.6753 81.37163,-127.6214 6.91044,-42.3244 -159.865216,26.7738 -117.470331,-226.4589 -11.15,-272.0341 70.57906,-74.3248 211.87661,44.3425 104.46764,89.5019 -36.56153,-39.0123 12.3966,-123.9831 -60.41537,-60.4964 -66.56761,30.1423 -126.858275,233.1561 -25.78305,202.6423 24.5774,-41.845 110.3592,-121.9041 90.24092,-17.7019 -50.79321,65.9506 44.3856,116.791 18.60762,108.1246 -104.76424,-11.1268 -45.28871,136.9365 -165.049,124.2674 z m 17.27488,-32.4984 c 92.31403,-61.0388 -28.935487,-112.0763 -45.290508,-30.551 5.730671,17.2525 24.988847,39.2647 45.290508,30.551 z m 211.72512,-108.2789 c -105.88975,-14.8986 -17.84536,-270.9353 34.12986,-181.1678 -11.25298,53.1134 -50.87347,203.7878 38.14908,94.9944 17.88562,-37.845 22.23754,-174.9152 85.47017,-104.0183 -25.63644,35.9761 -55.87493,216.7174 17.75716,114.0842 5.69363,-98.1591 173.27384,-200.9505 205.59523,-82.3204 -29.2925,53.0056 -26.32696,178.7903 36.71617,73.3456 69.98976,-34.8447 3.29437,-188.0272 86.99751,-163.8806 -1.83285,76.3059 101.11041,61.3057 51.7441,151.6471 -34.79981,129.2255 67.70901,-21.1974 84.83719,-62.9163 39.57722,-84.0576 135.35922,-18.034 134.29772,-118.1875 98.4495,-59.2829 25.4569,120.191 8.1839,164.4077 -37.7363,78.6088 52.3275,93.9545 60.3001,11.9529 -1.2664,-45.3337 56.371,-159.6005 81.7863,-78.4989 -29.5297,44.613 -38.8359,209.002 27.1121,95.1218 -2.0968,-107.4516 209.6822,-192.4543 195.1488,-50.4948 -15.7072,38.6578 -25.5838,145.8355 31.1309,65.227 42.3402,-54.6978 35.5785,-173.932 120.481,-135.5156 116.52,-50.4617 76.928,113.9894 65.1963,169.3397 35.6287,-13.238 112.0047,-133.6614 76.0127,-21.6384 -47.5144,115.0273 -208.7637,16.6998 -112.9581,-77.6713 -18.2197,-88.4532 -94.8394,31.1241 -77.9287,78.3611 -16.3055,81.8581 -79.6725,32.5525 -132.868,52.905 -64.5109,-32.3574 -107.907,19.5949 -164.4497,-27.3761 -45.2302,81.8706 -120.2399,-43.2596 -159.672,31.3289 -73.537,-37.2494 -140.75603,16.7415 -200.32846,-34.9405 -98.38766,109.2698 -105.93151,-53.3492 -93.18353,-122.9386 -35.88194,33.0603 -100.40124,227.6302 -200.2915,130.6898 -40.4207,75.6049 -125.66822,-58.2319 -157.53304,27.0444 -49.699,-14.714 -94.46444,-33.218 -141.83326,1.1155 z m 270.63456,-39.6286 c 72.41541,-17.8623 58.26894,-213.8114 -5.61738,-93.0202 -8.03188,23.5699 -50.98633,100.6952 5.61738,93.0202 z m 412.81173,2.0327 c 73.4655,-15.8166 69.6386,-215.8461 -0.7071,-95.6129 -8.02697,25.0736 -50.35854,91.3843 0.7071,95.6129 z m 355.7966,0.176 c 73.17,-13.1634 67.7909,-214.5722 -0.4279,-97.0792 -8.4595,25.4723 -50.4764,91.6931 0.4279,97.0792 z m 611.7571,37.3829 c -89.6428,-80.8565 53.2277,-196.0515 19.7618,-291.5342 -95.327,-6.9793 -49.2106,192.7137 -118.9081,93.9677 -6.1485,-108.7626 125.8704,-157.5748 206.6325,-101.6916 45.7792,-65.5737 116.6082,44.8025 168.8093,-31.2176 138.403,52.0961 -17.1617,213.0396 8.9017,310.5034 -118.4524,31.6565 -15.2995,-156.6624 -9.1542,-218.4781 -19.9377,-121.5891 -116.0659,68.5599 -104.667,125.4103 15.4357,84.6823 -87.1592,165.6013 -68.666,32.365 9.4182,-44.7032 98.9319,-214.323 7.7967,-194.088 -85.288,65.8206 -43.212,197.5279 -110.5067,274.7631 z m 422.5,0.8825 c -156.3549,0.4947 -59.6397,-280.8863 59.2314,-201.7043 57.9399,80.4858 -80.0917,143.1493 -78.3201,142.9066 117.4063,87.1389 124.0807,-188.4589 240.2474,-153.2589 61.0031,16.8964 28.2631,-155.3142 94.6688,-64.0567 12.6824,62.6995 -93.8918,202.3649 -26.5718,228.1473 64.8009,-18.9834 52.486,-228.9734 128.168,-137.8193 -30.1624,41.9339 -50.5889,218.8458 17.3583,100.3883 3.9194,-89.6421 186.8495,-199.0743 165.4521,-56.13 -50.6036,60.8586 -14.3363,-106.0207 -66.6925,-21.6427 -68.0029,68.1687 31.2869,192.3508 86.4033,80.8205 25.6679,-89.6604 157.346,-199.4204 208.1879,-75.7517 -9.4576,48.2442 -44.8031,173.5269 33.9983,80.5028 52.1342,-50.7258 20.5738,-243.2796 111.9526,-205.5551 24.4958,77.285 -92.9684,200.8554 -28.246,242.5396 31.5441,-40.1845 100.8699,-109.5251 58.3131,-14.0824 -44.3441,94.8611 -134.388,-0.6426 -183.0385,51.2323 -75.5405,-34.0607 -137.2062,22.9139 -194.0455,-40.2531 -56.3518,69.0977 -124.8447,36.1343 -188.4334,2.5397 -42.0926,84.5074 -126.5682,-22.0782 -176.9961,35.5978 -65.6725,-42.6215 -120.2689,29.507 -175.9251,-32.7713 -34.0365,5.8456 -43.5477,51.5323 -85.7122,38.3506 z m 173.8418,-39.5414 c 77.7366,-21.4657 54.5088,-219.3098 -7.0032,-86.7802 -7.4211,22.8065 -44.3231,91.2423 7.0032,86.7802 z m 541.0634,0.6651 c 82.1501,-17.9728 53.1299,-220.4888 -6.0597,-86.5758 -7.3366,22.9811 -43.9178,88.453 6.0597,86.5758 z m -724.4098,-69.0906 c 78.7107,-18.6838 21.495,-119.3368 -4.6229,-25.231 -6.4315,6.5426 -18.2676,37.5956 4.6229,25.231 z M 1246.7,2392.9745 c -98.1973,-96.3445 125.3305,-65.6529 0,0 z m 1560,-0.3835 c -96.7803,-70.4574 127.9495,-83.418 0,0 z M 68.20001,2224.2809 C 127.31478,2085.9012 187.61575,1948.0329 247.24122,1809.8733 15.835154,1580.8436 -65.18695,1201.6996 90.177275,908.72604 274.19371,542.2824 685.07608,342.46013 1080.8752,311.97979 c 441.6987,-39.03212 923.9548,122.55307 1186.3394,494.57534 174.9363,253.22477 185.9788,612.27437 7.221,866.79257 -241.6884,365.3044 -701.5306,530.6593 -1126.272,513.3082 -178.92077,-6.8867 -356.88296,-45.6549 -521.40679,-116.6108 -186.22239,51.2786 -371.86802,104.6585 -558.5568,154.2358 z M 1201.7,1745.0089 c 94.3923,43.6639 287.4787,-204.809 238.5,-141.8819 0,44.9577 0,89.9153 0,134.873 59,0 118,0 177,0 0,-159 0,-318 0,-477 -138.3333,0 -276.6667,0 -415,0 0,53.6667 0,107.3333 0,161 57.5569,11.2593 226.0882,-37.8305 142.1436,61.7533 -86.1541,120.4669 -281.0172,85.726 -342.482,-41.4188 -91.88579,-155.5336 -15.85744,-404.8549 176.6521,-433.98 101.8509,-27.17426 156.6818,94.2456 242.3817,106.5893 46.4349,0.019 92.8697,0.037 139.3046,0.056 0,-66.3333 0,-132.66667 0,-199 -130.938,36.29802 -211.8714,-89.27856 -338.6232,-88.23798 -230.2634,-18.25675 -436.78323,178.28998 -455.06029,403.42708 -28.47051,212.7834 97.52185,451.2882 316.04459,501.7156 38.7608,10.1543 79.1103,14.6156 119.1389,12.1043 z"
       id="path9148"
       clip-path="url(#clipPath10797)"
       transform="matrix(0.00498405,0,0,0.00498405,1208.0173,1264.7059)" />
  </g>
</svg>
