<?xml version="1.0" encoding="UTF-8" standalone="no"?>
<!-- Created with Inkscape (http://www.inkscape.org/) -->

<svg
   version="1.1"
   id="svg182"
   width="3412.2358"
   height="2772.9485"
   viewBox="0 0 3412.2358 2772.9485"
   sodipodi:docname="pls"
   inkscape:version="1.2.1 (8a69933317, 2022-10-28, custom)"
   xmlns:inkscape="http://www.inkscape.org/namespaces/inkscape"
   xmlns:sodipodi="http://sodipodi.sourceforge.net/DTD/sodipodi-0.dtd"
   xmlns="http://www.w3.org/2000/svg"
   xmlns:svg="http://www.w3.org/2000/svg">
  <defs
     id="defs186" />
  <sodipodi:namedview
     id="namedview184"
     pagecolor="#ffffff"
     bordercolor="#000000"
     borderopacity="0.25"
     inkscape:showpageshadow="2"
     inkscape:pageopacity="0.0"
     inkscape:pagecheckerboard="0"
     inkscape:deskcolor="#d1d1d1"
     showgrid="false"
     inkscape:zoom="0.24285293"
     inkscape:cx="1694.4411"
     inkscape:cy="1387.6711"
     inkscape:window-width="1920"
     inkscape:window-height="1048"
     inkscape:window-x="0"
     inkscape:window-y="32"
     inkscape:window-maximized="1"
     inkscape:current-layer="g188" />
  <g
     inkscape:groupmode="layer"
     inkscape:label="Image"
     id="g188"
     transform="translate(-306.83506,-307.04945)">
    <path
       style="fill:#fffcf7;fill-opacity:1"
       d="m 637.25,3079.3377 c -0.97507,-0.3934 -1.25,-10.8234 -1.25,-47.421 0,-26.5464 -0.38425,-46.9167 -0.88499,-46.9167 -0.48674,0 -1.56736,1.0414 -2.40136,2.3143 -0.834,1.2728 -3.6442,4.6524 -6.24489,7.5101 -14.83015,16.296 -34.46805,23.4475 -57.87254,21.0752 -29.11807,-2.9514 -53.43613,-26.9742 -61.64388,-60.8955 -3.33642,-13.7889 -3.15341,-32.9703 0.43071,-45.1427 3.3287,-11.3048 6.47887,-18.2952 11.7279,-26.0248 11.02994,-16.2423 24.41192,-26.2098 42.92429,-31.9721 9.52067,-2.9634 25.97685,-3.1331 35.96476,-0.3708 13.769,3.808 26.80573,12.2359 36.06406,23.3143 l 4.43594,5.308 0.5,-13.808 0.5,-13.808 12.25,-0.2808 12.25,-0.2808 v 113.4238 c 0,102.5052 -0.15227,113.4823 -1.58179,114.0308 -1.87676,0.7202 -23.36337,0.673 -25.16821,-0.055 z m -35.75,-89.3651 c 11.42376,-3.9847 21.74376,-12.5534 29.90574,-24.8308 L 636,2958.231 v -23.2495 c 0,-15.0619 -0.42072,-24.699 -1.19469,-27.3655 -4.64494,-16.0031 -24.02328,-31.1559 -43.41709,-33.9499 -13.56942,-1.9549 -30.18602,4.2141 -40.52044,15.0433 -17.63822,18.4827 -22.98091,48.7799 -12.49551,70.8592 9.23649,19.4494 23.19176,30.3115 42.12773,32.7901 5.06407,0.6629 15.7351,-0.5496 21,-2.3861 z m 372.16667,89.3607 C 973.3,3078.9667 973,3027.6667 973,2965.3333 V 2852 h 12 12 v 14 c 0,7.7 0.3375,13.9826 0.75,13.9613 0.4125,-0.021 3,-2.6455 5.75,-5.8315 9.0205,-10.4505 22.1009,-18.9184 35.0523,-22.6918 9.3788,-2.7326 26.9583,-2.5294 36.4125,0.4207 34.5765,10.7894 57.0042,42.5586 57.0282,80.7812 0.021,33.9317 -15.9877,63.659 -40.993,76.1201 -11.4062,5.6841 -18.3078,7.312 -31,7.312 -19.055,0 -33.6951,-5.9341 -47.6188,-19.3013 -4.5722,-4.3896 -8.5838,-8.8337 -8.9146,-9.8759 -0.3307,-1.0421 -1.2545,-1.8948 -2.0527,-1.8948 -1.2485,0 -1.44336,6.5042 -1.3942,46.5333 0.031,25.5933 -0.2117,46.9683 -0.54029,47.5 -0.66552,1.0769 -24.75593,1.3568 -25.81274,0.3 z m 92.52023,-88.9763 c 10.2752,-3.2354 21.7046,-12.8747 28.2875,-23.857 6.0114,-10.0288 8.6689,-20.1387 8.7074,-33.1248 0.053,-17.8284 -4.7447,-30.4214 -16.3055,-42.8006 -11.2084,-12.0018 -27.2578,-18.6881 -41.1081,-17.1259 -17.3759,1.9599 -35.4244,14.0016 -42.4579,28.3273 -2.7978,5.6986 -2.8117,5.8262 -3.1219,28.724 l -0.31168,23 3.19218,6 c 7.3193,13.7576 20.1473,25.7448 32.2954,30.1789 9.2751,3.3854 21.3788,3.6517 30.8226,0.6781 z m -318.7851,25.1573 c -17.77662,-3.8675 -29.81928,-16.4795 -35.68372,-37.3708 -2.06414,-7.3532 -2.15846,-9.8951 -2.48311,-66.9221 l -0.33748,-59.2785 13.80126,0.2785 13.80125,0.2786 0.53527,55 c 0.57451,59.0329 0.56175,58.8851 6.01238,69.5873 10.82808,21.2608 43.56351,20.4599 65.54129,-1.6034 4.8428,-4.8617 8.24895,-9.4353 10.75,-14.4346 L 823,2953.7313 V 2902.8656 2852 h 14 14 v 67.2775 c 0,73.0996 -0.18166,70.7071 5.47667,72.1273 2.50407,0.6285 2.52333,0.7162 2.52333,11.4978 v 10.8644 l -6.33092,0.678 c -10.27545,1.1004 -17.90607,-1.8238 -22.37296,-8.5737 -2.38711,-3.6072 -2.77036,-5.3436 -3.25112,-14.7303 l -0.545,-10.641 -3.20487,4.6146 c -15.46649,22.2696 -49.88793,36.0574 -75.89333,30.3997 z m 769.4084,0.501 c -19.8498,-2.4876 -39.8713,-13.5721 -51.9347,-28.7526 -7.0838,-8.9142 -14.1734,-23.0038 -16.9887,-33.7627 -2.6054,-9.9569 -2.8927,-28.5254 -0.6033,-39 5.3933,-24.6764 20.552,-44.5238 42.7165,-55.9288 10.51,-5.4081 16.8713,-7.3216 28.75,-8.6481 17.2011,-1.9208 36.6071,1.8656 50.2327,9.8013 7.8213,4.5552 21.3772,17.662 26.2778,25.4074 8.9656,14.1697 13.116,28.2895 13.1889,44.8682 l 0.051,11.5 -66.8367,0.2571 -66.8367,0.2571 0.6323,4.2429 c 2.2979,15.4182 10.5823,29.891 22.0411,38.5052 10.0668,7.5678 15.6536,9.4878 29.1354,10.0127 15.4099,0.6 24.2359,-2.0525 35.969,-10.81 4.3511,-3.2477 10.4768,-10.7085 11.6282,-14.1628 0.3102,-0.9307 22.2094,4.3065 23.5302,5.6272 1.398,1.3981 -5.1141,10.894 -12.8115,18.6814 -7.2115,7.2959 -10.027,9.3664 -18,13.2367 -15.2533,7.4045 -34.1524,10.6715 -50.1411,8.6678 z m 65.6533,-96.7653 c -2.3275,-13.919 -7.4172,-24.1903 -16.5222,-33.3431 -25.5037,-25.6379 -69.4513,-18.3382 -85.6039,14.2186 -2.4557,4.9497 -6.3374,18.6285 -6.3374,22.3323 0,0.2982 24.5454,0.5422 54.5453,0.5422 h 54.5453 z M 1863,3015.2894 c -11.111,-1.9479 -18.7856,-6.2499 -24.0062,-13.4567 -5.9552,-8.2209 -5.9938,-8.6776 -5.9938,-70.9804 v -56.7846 l -10.75,-0.2839 -10.75,-0.2838 -0.2838,-10.75 -0.2839,-10.75 h 11.0175 11.0175 l 0.2664,-26.75 0.2663,-26.75 h 13.5 13.5 l 0.2663,26.75 0.2664,26.75 h 18.0175 18.0175 l -0.2839,10.75 -0.2838,10.75 -17.75,0.2731 -17.75,0.273 v 51.2651 c 0,51.1762 0,51.2727 2.25,55.7228 4.566,9.0462 15.3205,11.4005 29.25,6.403 3.85,-1.3813 7.7593,-2.7648 8.6873,-3.0744 1.38,-0.4605 2.1451,0.9578 4.2008,7.7872 4.4485,14.7786 4.9065,13.056 -4.4552,16.7554 -14.0619,5.5567 -28.6488,8.0117 -37.9329,6.3842 z m -963.30491,-1.9276 C 899.31279,3012.9795 899,2976.5167 899,2932.3333 V 2852 h 13.50591 13.50592 l -0.25592,80.75 -0.25591,80.75 -12.55491,0.2784 c -6.90521,0.1532 -12.86771,-0.034 -13.25,-0.4166 z m 268.99921,-8e-4 C 1168.3125,3012.9791 1168,2976.5167 1168,2932.3333 V 2852 h 12.4752 12.4753 l 0.2747,16.25 0.2748,16.25 3.8028,-5 c 10.3669,-13.6307 22.5419,-22.7711 36.0667,-27.077 6.725,-2.1411 10.1185,-2.5978 19.6305,-2.6421 16.9326,-0.079 26.2401,3.2256 35.3082,12.5355 4.6541,4.7782 11.6721,17.1603 11.7071,20.6554 0.01,0.8405 0.3962,2.1291 0.8618,2.8635 0.6128,0.9668 1.7468,-0.137 4.1091,-4 1.7945,-2.9344 7.0513,-9.0861 11.6816,-13.6704 13.2156,-13.0841 26.8404,-18.4526 46.8322,-18.4529 10.1617,-2e-4 11.5966,0.249 18.8283,3.2698 17.041,7.1183 25.7555,22.9022 28.6405,51.8742 1.2126,12.1778 1.3758,106.0526 0.1876,107.9252 -0.6081,0.9583 -4.0687,1.2103 -13.7347,1 L 1384.5,3013.5 1383.9044,2961 c -0.3275,-28.875 -0.9406,-54.075 -1.3623,-56 -2.2775,-10.395 -5.3696,-17.0335 -10.4023,-22.3324 -4.6031,-4.8467 -7.2338,-6.2139 -14.5642,-7.569 -18.4482,-3.4103 -39.7019,9.3972 -49.4428,29.7944 l -3.6328,7.607 -0.2767,50.2377 -0.2767,50.2376 -2.2233,0.5526 c -1.2228,0.3039 -7.3983,0.4219 -13.7233,0.2623 l -11.5,-0.2902 -0.5747,-53 c -0.5054,-46.6134 -0.7922,-53.8435 -2.3795,-60 -4.1502,-16.0963 -10.7612,-23.1288 -24.0525,-25.5859 -19.5055,-3.6058 -42.2112,11.8384 -51.5824,35.0859 -1.1236,2.7873 -1.5127,13.6821 -1.9109,53.5 l -0.5,50 -13.0557,0.2777 c -7.1806,0.1527 -13.3681,-0.035 -13.75,-0.4167 z m -836.08731,-1.9428 c -0.79334,-2.0674 -0.79334,-213.769 0,-215.8364 0.54581,-1.4224 7.9536,-1.5818 73.5,-1.5818 H 479 v 12.5 12.5 h -59 -59 v 34.9909 34.9909 l 51.25,0.2591 51.25,0.2591 0.28174,11.75 0.28173,11.75 H 412.53174 361 v 37.4922 37.4922 l 60.25,0.2578 60.25,0.2578 0.28078,12.25 0.28078,12.25 h -74.42379 c -66.94227,0 -74.48481,-0.159 -75.03078,-1.5818 z M 1642,2932.5282 V 2852 h 12.5 12.5 l 0.047,16.25 0.047,16.25 2.7031,-3.4925 c 11.4549,-14.8008 26.5272,-24.9318 44.203,-29.7117 8.8731,-2.3995 30.6333,-2.4154 36.7793,-0.027 11.383,4.4238 20.9583,14.1037 25.2632,25.5392 5.243,13.9279 5.298,14.675 5.6919,77.4419 l 0.3687,58.75 h -14.0515 -14.0516 v -51.412 c 0,-55.9665 -0.4391,-61.6752 -5.5263,-71.8523 -3.4213,-6.8446 -6.669,-10.1491 -12.3413,-12.5573 -10.8336,-4.5996 -21.5377,-3.6968 -35.1324,2.9631 -10.6861,5.235 -23.0624,17.062 -27.5826,26.3585 l -2.9174,6 -0.5,50 -0.5,50 -13.75,0.2782 -13.75,0.2782 v -80.5282 z M 899,2805 v -17 h 13.5 13.5 v 17 17 H 912.5 899 Z m -508,-30.6926 c -21.73041,-3.6529 -56.65913,-22.1821 -74.09687,-39.3074 -10.33453,-10.1494 -11.82832,-14.7765 -8.44705,-26.1655 3.90274,-13.1454 16.87914,-33.1799 26.34838,-40.6796 10.74053,-8.5067 65.18152,-26.8157 113.41659,-38.1432 l 13.72106,-3.2222 4.96751,-15.6447 C 472.44818,2593.7015 483,2559.0741 483,2558.3417 c 0,-0.26 -2.75982,3.0002 -6.13294,7.2449 -8.34697,10.5038 -27.94133,30.5421 -35.32327,36.1236 -9.35908,7.0764 -16.89232,10.2881 -24.13383,10.289 -23.0111,0 -60.10612,-20.857 -76.96003,-43.2776 -10.27638,-13.6707 -13.08389,-22.9768 -12.06086,-39.9785 1.87048,-31.0853 12.47244,-67.8882 30.02979,-104.2431 22.90396,-47.4258 50.09433,-82.1365 80.48802,-102.7494 9.10764,-6.1767 25.38572,-14.0063 34.09312,-16.3983 9.97463,-2.7402 30.03836,-2.5198 40.5,0.4447 19.42091,5.5034 46.67551,22.2934 57.71361,35.554 7.08848,8.5158 9.18702,13.5631 8.33271,20.0417 -1.5246,11.5616 -9.96022,31.2686 -22.44835,52.4428 -9.8652,16.727 -11.61042,17.3665 -26.96286,9.8804 C 521.79609,2419.6497 515,2412.9392 515,2408.7714 c 0,-1.6889 2.88881,-10.5409 6.41957,-19.6711 8.14397,-21.0594 9.87536,-27.7469 9.39647,-36.2939 -0.31731,-5.6632 -0.84444,-7.2736 -3.42421,-10.461 -1.67704,-2.072 -5.03876,-4.8362 -7.47049,-6.1426 -9.98949,-5.3667 -26.86554,-0.4149 -43.07253,12.6382 -12.31052,9.915 -21.51245,20.8611 -35.38562,42.0927 -28.07127,42.9605 -51.502,112.4068 -51.45342,152.5027 0.0117,9.635 2.47835,15.8832 9.11103,23.0788 6.25959,6.7909 12.14326,9.931 18.43707,9.8401 20.029,-0.2895 51.74604,-32.0332 82.3507,-82.4199 8.24735,-13.5783 9.96018,-15.3638 14.61129,-15.232 7.01928,0.199 25.54506,11.3014 30.07552,18.0241 2.0448,3.0343 2.08362,3.5348 0.8515,10.9759 -2.41058,14.5582 -11.27127,48.5852 -21.95094,84.2966 -2.38497,7.975 -5.02134,16.857 -5.85861,19.7378 l -1.5223,5.2378 9.69249,-0.099 c 8.03675,-0.082 11.05909,0.3596 17.69248,2.5857 9.84222,3.3031 17.72798,7.7105 20.0002,11.1784 1.24766,1.9041 1.54249,3.6909 1.08309,6.5638 -1.57812,9.869 -13.06298,25.7955 -18.60159,25.7955 -1.50954,0 -9.11966,-3.15 -16.91138,-7 -11.61923,-5.7412 -15.03417,-7 -18.99038,-7 h -4.82361 l -8.22053,24.25 c -4.52129,13.3375 -11.82442,33.3946 -16.22918,44.5714 -7.61539,19.3235 -8.30609,20.6394 -14.06561,26.7963 -13.64012,14.5813 -37.49492,25.8292 -62.24101,29.3475 -7.18311,1.0212 -9.16211,1.0714 -13.5,0.3422 z m 17.27488,-32.4984 c 5.56985,-3.5571 14.52316,-13.0573 19.40322,-20.5884 1.88155,-2.9037 5.37131,-10.3287 7.75501,-16.5 6.69501,-17.3331 15.84358,-43.7772 15.32464,-44.2962 -0.67098,-0.671 -28.16,6.7808 -42.25775,11.4553 -25.35888,8.4084 -39.33379,15.794 -44.69397,23.6203 -3.85717,5.6318 -3.69125,10.4707 0.65544,19.1156 6.17772,12.2866 16.67376,22.9566 28.03853,28.5033 6.88499,3.3603 8.69788,3.2097 15.77488,-1.3099 z M 620,2633.5301 c -19.43812,-4.4706 -41.29555,-20.2152 -48.49667,-34.9338 -4.3596,-8.9107 -3.55183,-17.4341 5.12668,-54.0963 7.404,-31.278 24.38575,-93.1962 32.01246,-116.7225 2.9377,-9.062 6.43223,-12.7775 12.01767,-12.7775 7.82681,0 27.97863,10.5298 35.65621,18.6313 2.98319,3.1479 3.66792,4.6279 3.67498,7.9433 0.005,2.241 -3.38768,15.966 -7.53878,30.5 -18.54291,64.9231 -26.61401,97.5578 -26.83175,108.4913 -0.0981,4.9235 0.34141,6.7418 2.33349,9.6551 4.68229,6.8474 10.08617,8.3054 17.80206,4.8031 12.23717,-5.5546 32.86421,-25.6211 42.9181,-41.7519 3.53678,-5.6745 5.66212,-11.0556 9.49554,-24.0415 5.28227,-17.894 5.23949,-17.7417 18.18549,-64.7307 11.50838,-41.771 12.11986,-43.629 15.36951,-46.7022 3.1732,-3.0008 5.32751,-3.4972 10.27501,-2.3676 9.92615,2.2663 29.81543,13.6931 33.95644,19.5086 3.07596,4.3198 2.56306,9.4655 -2.5757,25.8411 -18.31621,58.3679 -33.12568,117.0431 -32.14086,127.3423 0.83904,8.7747 8.37468,15.1502 15.23209,12.8871 10.28978,-3.396 26.52423,-22.7329 46.26943,-55.1118 3.89147,-6.3813 8.30041,-14.0313 9.79765,-17 1.49724,-2.9686 3.93499,-6.9725 5.41722,-8.8975 1.48224,-1.925 3.74554,-6.2 5.02955,-9.5 4.20846,-10.816 15.70179,-33.8194 21.4843,-43 17.1171,-27.1759 36.80837,-46.5355 51.88731,-51.0135 18.46404,-5.4832 47.5941,4.1564 66.84973,22.1218 3.57946,3.3396 5.49603,4.3934 8,4.3988 7.13936,0.015 21.88078,2.8865 27.10896,5.2801 9.40988,4.308 10.57508,8.1471 6.77498,22.3236 -3.4604,12.9089 -4.6895,17.0921 -10.1047,34.3892 -16.81906,53.7233 -22.09461,81.3905 -17.08568,89.6048 2.92134,4.7907 7.90349,7.4543 12.15128,6.4962 5.22061,-1.1774 6.82276,-2.2804 14.1752,-9.7587 12.2656,-12.4755 23.6764,-28.7983 40.0866,-57.3423 5.744,-9.9912 9.3146,-15.1219 11.4828,-16.5 4.054,-2.5767 10.8812,-16.0486 25.7689,-50.8491 l 6.3524,-14.8491 -3.1954,-2.6509 c -17.242,-14.3041 -19.8433,-26.8849 -9.9342,-48.0471 7.1459,-15.2611 17.4385,-28.1187 23.7843,-29.7114 9.1437,-2.2949 32.387,10.6956 37.3015,20.8474 2.4427,5.046 2.1542,7.9307 -2.345,23.45 -3.4262,11.8183 -3.3713,16.5757 0.2209,19.1277 3.3647,2.3904 8.8151,4.7413 16.7779,7.2366 13.2573,4.1546 28.7165,10.9052 32.9872,14.4047 6.7871,5.5616 7.3128,8.5755 4.1304,23.68 -1.4325,6.7987 -5.5544,23.8362 -9.1599,37.8612 -11.2739,43.8547 -15.4856,63.994 -15.4856,74.0482 0,4.1735 0.4581,5.4718 2.646,7.4995 3.1882,2.9548 6.197,3.0957 11.1438,0.522 11.4839,-5.9749 31.1748,-31.5848 49.6461,-64.5697 4.312,-7.7 8.6714,-14.9221 9.6875,-16.049 1.0162,-1.127 3.6043,-6.302 5.7513,-11.5 13.9807,-33.8481 29.0373,-57.371 48.1193,-75.1769 12.8398,-11.9812 25.1118,-17.7341 37.89,-17.7622 5.0266,-0.011 7.2973,0.4075 17.616,3.2473 5.6616,1.5582 16.1403,6.7706 22.2645,11.0753 2.8682,2.016 5.6159,3.6655 6.1059,3.6655 0.49,0 4.9637,-14.2875 9.9416,-31.75 7.651,-26.8403 12.1953,-42.4781 18.3613,-63.1848 0.5625,-1.8891 1.6909,-4.4545 2.5076,-5.7009 1.815,-2.7701 8.9693,-6.3643 12.6681,-6.3643 5.5515,0 21.5557,9.8088 30.401,18.6324 7.4278,7.4097 7.4936,6.7386 -4.7954,48.9325 -7.4626,25.6225 -12.306,42.7003 -18.416,64.9351 -2.5693,9.35 -7.3157,26.45 -10.5476,38 -5.4785,19.5789 -6.8804,24.7297 -11.907,43.75 -3.7071,14.0272 -8.1124,35.7844 -8.7337,43.1343 -0.5536,6.5494 -0.3686,7.8501 1.5612,10.9725 1.2041,1.9483 3.7198,4.4883 5.5904,5.6444 2.9229,1.8064 3.9353,1.9528 7.1996,1.0413 11.7919,-3.2926 30.3941,-26.3843 54.3472,-67.4634 3.5024,-6.0065 7.3816,-12.1254 8.6204,-13.5977 1.2388,-1.4722 2.6631,-4.4328 3.165,-6.5791 1.0906,-4.6634 5.7504,-22.2863 11.3441,-42.9023 13.1888,-48.6075 13.8229,-50.2977 20.152,-53.7081 5.028,-2.7094 9.4563,-2.1881 18.4793,2.1753 15.1365,7.3198 27.1987,17.2086 27.184,22.2857 -0.01,2.4459 -4.1063,17.6011 -9.6689,35.7471 -15.4898,50.5306 -21.8775,73.828 -26.2661,95.7992 -1.6324,8.1723 -1.3529,19.8218 0.545,22.7184 2.557,3.9026 7.7824,6.6713 11.0746,5.8681 11.529,-2.8128 32.0086,-27.9794 54.8357,-67.3857 3.6639,-6.325 7.7227,-12.625 9.0195,-14 1.2968,-1.375 4.2263,-7 6.5099,-12.5 18.3136,-44.1067 44.39,-78.5683 67.434,-89.1182 18.9584,-8.6794 49.0911,-0.1814 71.5228,20.1709 4.4235,4.0134 4.687,4.1031 15.5,5.277 20.2097,2.1941 28.5226,6.8583 28.4906,15.9854 -0.013,3.6596 -3.931,18.3144 -10.4767,39.1849 -14.0337,44.7462 -20.3369,71.3609 -20.6596,87.2337 -0.097,4.7789 0.3283,6.3169 2.5552,9.2365 3.3041,4.332 6.0769,5.8732 10.2818,5.7151 10.873,-0.4088 30.8925,-24.6037 54.7631,-66.1853 4.2625,-7.425 8.3202,-14.175 9.0172,-15 0.697,-0.825 1.4889,-2.625 1.7599,-4 1.1016,-5.5907 14.9081,-57.9683 20.824,-79 4.412,-15.6848 5.1561,-17.047 10.9193,-19.9871 9.8234,-5.0116 16.9973,-0.5772 36.2856,22.429 l 2.4665,2.9419 4.9186,-3.1563 c 5.611,-3.6006 26.5316,-13.6782 36.6678,-17.6631 15.0553,-5.9189 28.3074,-7.9288 35.7875,-5.4279 5.4987,1.8384 19.5469,11.597 23.3155,16.1961 1.9151,2.3371 4.6255,6.7058 6.0231,9.7083 4.5964,9.8746 4.2803,11.8876 -12.4754,79.4591 -12.7529,51.4289 -15.1388,64.4102 -13.0191,70.8329 1.3011,3.9427 5.8424,8.3246 9.6061,9.2692 7.6425,1.9182 22.5804,-12.4886 40.1724,-38.7441 5.5603,-8.2986 19.9031,-32.2016 23.1097,-38.5135 1.1611,-2.2855 3.3612,-5.1419 4.889,-6.3475 6.9711,-5.5009 21.7563,2.882 21.4918,12.1854 -0.1992,7.0056 -18.6202,39.6685 -37.3706,66.2631 -2.3055,3.27 -8.9509,10.7466 -14.7675,16.6146 -13.1076,13.2233 -20.9403,18.0835 -33.1542,20.572 -8.0867,1.6477 -9.0683,1.6516 -17.1239,0.069 -20.9037,-4.1072 -44.5635,-18.0822 -51.1302,-30.2009 -1.8429,-3.401 -2.1498,-5.4974 -2.049,-14 0.1614,-13.6288 2.2403,-23.1987 17.9218,-82.5 4.8227,-18.2376 7.4631,-30.6281 7.4432,-34.9295 -0.033,-7.2185 -7.7309,-16.0705 -13.9748,-16.0705 -7.6189,0 -24.8438,8.5734 -32.8161,16.3338 -6.9327,6.7483 -8.3093,9.1303 -12.5211,21.6662 -6.7733,20.1596 -21.7255,77.4117 -30.1645,115.5 -3.8335,17.302 -4.6356,19.688 -7.6479,22.75 -3.1912,3.244 -6.4716,3.4938 -14.7052,1.1199 -19.5908,-5.6485 -32.3158,-17.6199 -29.7205,-27.9604 0.4913,-1.9575 -1.4811,-0.3607 -7.9473,6.4342 -17.4253,18.311 -32.7827,25.0595 -50.3485,22.1247 -19.6818,-3.2883 -43.6753,-14.769 -52.561,-25.15 l -3.5053,-4.0951 -5.2856,5.0855 c -12.4729,12.0004 -28.098,21.6959 -38.9679,24.1797 -13.1003,2.9935 -32.6557,-5.3218 -49.2185,-20.9285 -5.9788,-5.6336 -15.1637,-18.4764 -16.2179,-22.6765 -0.5092,-2.029 -1.2768,-1.3452 -6.6349,5.911 -13.5528,18.3541 -30.3606,32.6852 -42.5318,36.2648 -3.4914,1.0268 -9.2162,1.6805 -14.7147,1.68 -7.5644,-5e-4 -10.5153,-0.5227 -18.5,-3.2739 -20.466,-7.0518 -35.6245,-17.8258 -40.9933,-29.1361 l -2.6917,-5.6707 -5.6762,7.374 c -6.8292,8.8719 -17.4287,18.5909 -25.9133,23.7607 -15.461,9.4207 -30.0168,9.2333 -51.9647,-0.6691 -9.0548,-4.0854 -22.1268,-13.1037 -29.5992,-20.4205 -2.6191,-2.5646 -1.9504,-2.8368 -10.6616,4.3412 -7.606,6.2672 -23.0138,16.3327 -30.0211,19.6118 -14.5625,6.8146 -29.4673,5.0806 -45.6247,-5.3079 -13.0934,-8.4184 -21.5673,-17.3222 -27.6025,-29.0028 l -2.9213,-5.654 -6.4152,8.5137 c -19.7828,26.2539 -41.8923,38.9348 -61.5375,35.2945 -20.9201,-3.8765 -43.3826,-17.0614 -48.9097,-28.7089 -3.6043,-7.5954 -0.4953,-31.6564 8.6949,-67.2913 2.1986,-8.525 5.3275,-20.675 6.9532,-27 7.6687,-29.8365 8.5355,-37.6878 4.4561,-40.3607 -3.4852,-2.2836 -14.4643,-5.1779 -15.4053,-4.0611 -0.4271,0.507 -3.4323,6.7718 -6.6781,13.9218 -8.2901,18.2614 -31.1629,63.3595 -34.0834,67.2018 -1.3385,1.761 -3.6648,3.9383 -5.1695,4.8384 -1.5495,0.9269 -4.6707,5.1169 -7.1976,9.662 -6.3677,11.4538 -19.4041,31.1088 -26.0648,39.2978 -16.577,20.3807 -31.8408,30.9543 -47.72742,33.0617 -15.31887,2.0322 -49.59135,-10.9676 -62.29442,-23.6286 l -5.58536,-5.5668 -4.93315,4.3886 c -14.85236,13.2128 -29.06375,21.9187 -39.61413,24.2677 -9.95233,2.2157 -22.98991,-1.6888 -36.95622,-11.0678 -9.13268,-6.133 -20.97225,-18.6547 -24.99584,-26.436 -1.85183,-3.5813 -3.59196,-6.4929 -3.86696,-6.4703 -0.275,0.023 -3.2,3.6978 -6.5,8.1671 -16.66264,22.567 -37.34103,36.7745 -53.5,36.7582 -15.9945,-0.016 -44.10046,-14.1235 -53.66697,-26.9375 -2.06797,-2.77 -4.09755,-5.0363 -4.51019,-5.0363 -0.60359,0 -14.22865,8.8086 -25.42042,16.4342 -5.59956,3.8154 -22.11158,11.9648 -27.66339,13.6532 -7.09384,2.1573 -9.97175,2.2291 -17.73903,0.4427 z m 270.63456,-39.6286 c 7.72179,-4.5826 20.8283,-17.7157 26.84697,-26.9015 7.24445,-11.0566 14.88773,-31.599 22.3498,-60.0685 3.78032,-14.4227 8.16867,-35.7287 8.16867,-39.6599 0,-5.6495 -8.27419,-11.2683 -19.72327,-13.3935 -8.16972,-1.5165 -11.83936,-0.031 -19.43287,7.8643 -12.87556,13.388 -25.7715,37.9234 -35.81055,68.1322 -11.3668,34.204 -13.12898,53.5617 -5.64479,62.0084 6.36219,7.1805 13.5031,7.8005 23.24604,2.0185 z m 412.81174,2.0327 c 9.7713,-3.6559 27.3856,-22.8926 35.4207,-38.6831 4.8222,-9.4765 14.0007,-39.1366 21.7397,-70.2511 l 5.3477,-21.5 -2.2272,-1.7786 c -1.225,-0.9783 -5.3772,-3.6549 -9.2272,-5.9482 -9.4593,-5.6345 -16.0617,-6.2599 -22.2054,-2.1033 -4.8365,3.2722 -11.8658,11.2113 -17.0548,19.2623 -9.4979,14.7365 -24.2817,48.8766 -29.3672,67.8178 -2.4082,8.9695 -2.9766,11.2796 -4.3669,17.75 -3.8146,17.7532 0.1631,32.7066 9.6092,36.1234 4.7597,1.7216 6.086,1.6475 12.3314,-0.6892 z m 355.7966,0.176 c 5.2898,-2.2675 14.6539,-9.5431 20.5296,-15.9508 13.5293,-14.7545 19.8763,-27.9897 29.569,-61.6594 5.1665,-17.947 11.6585,-46.6567 11.6585,-51.5578 0,-5.669 -13.403,-13.0845 -24.0447,-13.3033 -4.7208,-0.097 -6.1679,0.3444 -9.7398,2.9712 -19.9855,14.6975 -45.1517,69.9412 -51.1991,112.3899 -1.8578,13.0403 1.4246,23.069 8.8314,26.9821 4.6655,2.4649 8.8566,2.5022 14.3951,0.1281 z M 2271,2633.4931 c -9.3459,-1.7638 -20.9445,-5.6845 -26.571,-8.9818 -6.4878,-3.8022 -8.429,-6.8282 -8.429,-13.1396 0,-12.5214 9.3019,-51.4358 38.4538,-160.8717 26.3267,-98.8298 27.8691,-106.0252 23.9948,-111.938 -2.8696,-4.3797 -5.7756,-4.9367 -11.2586,-2.1583 -9.1772,4.6505 -37.9684,28.609 -54.3979,45.2672 -16.2022,16.4277 -17.2543,22.5875 -8.965,52.4886 6.5543,23.6424 6.5768,24.8933 0.5492,30.5065 -4.7071,4.3835 -12.464,8.6058 -17.8763,9.7306 -4.2292,0.879 -8.0409,-1.7558 -15.9502,-11.0255 -12.6792,-14.8599 -25.3523,-36.4388 -26.2909,-44.7665 -0.8676,-7.6972 5.4317,-22.4288 17.6882,-41.3661 8.6874,-13.4227 12.8377,-17.3551 32.9849,-31.254 41.146,-28.3853 69.337,-42.9845 83.0027,-42.9845 10.2075,0 28.3532,7.7183 40.9698,17.4265 7.3826,5.6808 15.7514,14.98 17.2763,19.197 l 1.1557,3.196 9.9572,-8.9372 c 21.5297,-19.3241 38.583,-29.8841 49.5398,-30.6766 16.7622,-1.2125 48.6958,14.8645 64.1665,32.3046 l 5.5,6.2002 4.5,-3.9384 c 16.2672,-14.2369 20.5343,-17.6601 29.3193,-23.5204 10.8215,-7.2188 20.5277,-11.261 26.9762,-11.2343 16.3839,0.068 40.6593,11.8335 54.5193,26.4245 9.0203,9.496 10.8997,14.6959 9.1148,25.2184 -2.1309,12.5619 -7.7503,34.7111 -23.9768,94.506 -23.7254,87.4282 -32.9528,124.5803 -32.9528,132.6768 0,2.018 1.8641,5.8036 5.5855,11.3429 8.7594,13.0383 8.7519,13.0175 6.1185,16.9252 -4.7941,7.1141 -24.594,21.5629 -32.7565,23.9039 -3.8982,1.1179 -5.6638,0.1973 -13.3012,-6.9358 -6.6481,-6.2091 -12.8246,-14.4024 -17.773,-23.5763 -3.805,-7.0542 -4.1171,-8.2114 -4.0384,-14.9712 0.1703,-14.6244 8.6315,-49.73 35.3172,-146.5318 14.3288,-51.9773 19.8479,-74.0048 19.8479,-79.2158 0,-10.871 -10.8337,-20.2088 -21.4479,-18.4864 -13.8344,2.245 -43.8853,25.5016 -50.8658,39.3654 -4.6774,9.2897 -17.054,49.6962 -27.6704,90.3368 -7.0447,26.9681 -20.4946,85.1501 -28.6448,123.9134 -4.2849,20.3794 -7.4442,33.1881 -8.5094,34.5 -1.4032,1.7283 -2.7006,2.0583 -7.5557,1.9216 -11.583,-0.3262 -29.0553,-6.6639 -36.5761,-13.2673 -3.3997,-2.9849 -3.7298,-3.7305 -3.7285,-8.4213 0,-14.2558 10.5222,-58.5219 42.4055,-178.4612 15.9173,-59.8777 18.2035,-70.2045 16.6732,-75.3121 -2.4012,-8.0146 -12.4485,-15.8731 -20.2943,-15.8731 -10.72,0 -41.8716,24.764 -54.7204,43.5 -10.1371,14.7818 -37.5456,116.869 -58.1041,216.4181 -3.2279,15.6299 -6.4833,29.0325 -7.2343,29.7835 -2.0838,2.0838 -7.4487,2.3538 -15.727,0.7915 z m 422.5,0.8825 c -36.7638,-5.5832 -69.6619,-25.0281 -81.9693,-48.4491 -4.3307,-8.2413 -5.6911,-17.8738 -4.325,-30.6237 4.2922,-40.0607 35.1629,-100.3979 64.242,-125.5621 16.344,-14.1435 28.8016,-17.4397 46.608,-12.332 23.0153,6.6019 43.3499,20.3003 49.5313,33.3669 3.31,6.9967 2.9871,12.5796 -1.6615,28.7244 -8.3554,29.0186 -26.4405,60.367 -40.9857,71.0442 -7.0167,5.1507 -12.7323,6.6909 -21.9398,5.912 -9.9222,-0.8393 -25.6293,-3.1626 -29.9934,-4.4365 -6.8375,-1.9958 -7.7524,-1.5634 -8.9499,4.2303 -1.7691,8.5591 -1.7031,19.8059 0.1364,23.25 2.6288,4.9219 10.9048,12.4563 17.2209,15.6779 8.3165,4.2419 14.0825,5.7988 21.5221,5.8113 20.3666,0.034 45.0807,-13.4979 63.6034,-34.8257 7.4667,-8.5976 18.9453,-25.6106 25.4111,-37.6635 2.3605,-4.4 5.102,-8.9 6.0924,-10 0.9904,-1.1 3.2188,-5.6 4.9519,-10 5.3382,-13.5519 15.5448,-33.4648 23.0655,-45 20.7295,-31.7948 42.4446,-48.541 62.8711,-48.4846 11.4017,0.031 26.3024,5.1576 39.1498,13.4686 3.9301,2.5423 7.3581,4.4099 7.6178,4.1502 0.6491,-0.6491 12.0761,-39.7405 17.2858,-59.1342 0.4433,-1.65 3.2569,-11.2203 6.2525,-21.2674 5.7475,-19.2764 7.3623,-22.2546 13.4805,-24.8615 6.3277,-2.6962 11.3502,-1.0889 24.7821,7.9307 8.2206,5.5202 10.0623,7.0639 13.75,11.5249 4.6941,5.6786 4.1627,9.0658 -7.7936,49.6733 -3.0768,10.45 -6.4792,22.15 -7.5609,26 -4.3849,15.607 -10.6416,38.1637 -13.0075,46.8949 -1.0276,3.7922 -4.548,16.3922 -7.8231,28 -3.2752,11.6078 -8.2109,30.1051 -10.9684,41.1051 -7.9925,31.8834 -9.1478,37.7553 -9.3267,47.4017 -0.1221,6.5825 0.086,7.3401 2.7992,10.1939 1.612,1.6956 4.2236,3.7579 5.8036,4.5827 4.5557,2.3786 10.5108,-0.4564 19.0986,-9.092 11.84,-11.9061 23.2562,-27.8664 37.9717,-53.0863 4.8137,-8.25 9.8776,-16.4905 11.2531,-18.3122 1.7068,-2.2607 4.0306,-9.0864 7.3196,-21.5 2.6504,-10.0033 5.9827,-22.4628 7.4051,-27.6878 1.4224,-5.225 3.9217,-14.45 5.554,-20.5 7.6264,-28.2664 8.7169,-30.7085 15.2256,-34.095 4.7443,-2.4685 9.5152,-1.7032 19.2095,3.0814 10.8631,5.3615 22.1976,13.7735 24.5942,18.253 2.3456,4.384 2.1638,5.1315 -14.1705,58.2606 -1.0992,3.575 -2.3743,7.85 -2.8337,9.5 -0.4594,1.65 -2.6834,9.3 -4.9422,17 -8.8477,30.1616 -14.0576,53.9349 -14.0576,64.1468 0,6.0888 0.2064,6.652 3.883,10.5934 3.2607,3.4956 4.4713,4.1461 7.5535,4.0588 10.9521,-0.3105 29.3804,-22.0177 55.0108,-64.799 4.2836,-7.15 8.761,-14.35 9.9497,-16 1.1888,-1.65 3.2202,-6.375 4.5144,-10.5 11.6951,-37.2762 37.3313,-74.1617 60.391,-86.8909 18.004,-9.9385 34.0481,-10.6206 55.3918,-2.3551 14.3597,5.5608 29.0557,17.0895 33.7224,26.4545 4.8816,9.796 2.3512,24.374 -7.8614,45.2915 -6.5548,13.4255 -9.6926,16.7615 -15.688,16.6787 -7.6769,-0.1059 -20.628,-7.3401 -25.3567,-14.1635 -3.5899,-5.1802 -3.1051,-7.6656 4.5143,-23.1476 8.5645,-17.4022 8.7375,-20.3957 1.3567,-23.481 -10.5985,-4.4303 -24.0491,7.2785 -36.316,31.6134 -12.8889,25.5688 -22.0661,60.7145 -22.0645,84.5 5e-4,7.8175 0.3749,9.7913 2.8497,15.0224 5.4,11.4144 18.527,20.3373 31.2651,21.252 5.0572,0.3632 8.3555,-0.059 14,-1.7916 26.7068,-8.1984 57.2878,-34.9187 80.2091,-70.0831 3.081,-4.7267 6.2764,-9.1538 7.1007,-9.838 0.8244,-0.6841 2.3692,-3.5654 3.4329,-6.4028 12.7566,-34.0265 37.3686,-71.5108 56.4804,-86.0197 14.5186,-11.0219 23.4272,-13.4032 40.0879,-10.7155 14.5115,2.3409 28.2453,9.1053 42.2598,20.8145 7.0664,5.904 7.2341,5.9785 14.9799,6.6571 15.2713,1.338 27.7431,5.7645 30.44,10.8038 2.3046,4.3061 -0.1103,14.5722 -13.5962,57.8009 -10.6787,34.23 -16.501,60.1211 -16.5071,73.4056 0,5.8654 0.3812,7.4095 2.5485,10.2511 6.8588,8.9923 14.1368,7.642 26.0287,-4.8289 12.0507,-12.6375 23.9008,-29.6427 38.9035,-55.8278 4.2542,-7.425 8.1475,-14.0104 8.6519,-14.6343 1.0487,-1.2972 4.3516,-12.5008 8.7746,-29.7643 6.2575,-24.4238 24.3829,-88.0372 36.6425,-128.6014 8.9361,-29.568 9.7932,-31.7282 13.6639,-34.4393 3.1841,-2.2302 5.9615,-1.9565 14.3884,1.4178 9.4136,3.7694 22.1557,11.9076 26.9465,17.2104 3.58,3.9626 3.6718,4.2553 3.043,9.6985 -0.3566,3.0869 -2.0169,10.1126 -3.6896,15.6126 -1.6727,5.5 -3.8659,12.7 -4.8736,16 -1.0078,3.3 -3.4942,11.625 -5.5254,18.5 -2.0312,6.875 -4.9848,16.775 -6.5634,22 -3.1602,10.4597 -22.5358,78.7883 -25.9462,91.5 -1.1804,4.4 -2.8171,10.475 -3.6371,13.5 -7.3895,27.2621 -11.6256,46.4305 -11.7526,53.1798 -0.093,4.9651 0.254,6.057 2.7608,8.6774 1.5771,1.6487 5.0715,3.9458 7.7653,5.1046 7.1114,3.0593 11.0227,1.7404 20.0439,-6.7587 11.8226,-11.1382 25.964,-31.075 41.8746,-59.0355 7.4801,-13.1452 11.9462,-18.1676 16.1551,-18.1676 3.9024,0 9.9824,3.2473 13.1677,7.0329 4.8558,5.7707 3.7255,10.1992 -8.1217,31.8202 -10.1808,18.5799 -17.4321,29.8959 -28.2675,44.1127 -24.481,32.1211 -45.2298,41.1359 -73.9446,32.1272 -22.0255,-6.91 -39.5053,-18.2433 -45.1239,-29.2566 l -2.1662,-4.2461 -3.1079,3.9548 c -19.6145,24.9599 -40.0597,36.0692 -59.7726,32.4785 -18.6797,-3.4025 -43.3831,-15.1195 -51.63,-24.4885 l -3.9479,-4.485 -4.8959,4.5302 c -13.3889,12.3886 -29.3234,22.2413 -39.577,24.4715 -4.5137,0.9817 -6.9762,0.9807 -11.9848,0 -22.482,-4.4231 -49.5769,-27.9227 -54.0873,-46.9102 l -1.1899,-5.0093 -9.5285,9.2022 c -18.8206,18.176 -35.2426,29.175 -54.8416,36.7315 -13.9546,5.3802 -19.5334,6.413 -34.1869,6.3291 -11.6544,-0.067 -14.7167,-0.4459 -22.4004,-2.7732 -26.0132,-7.8788 -47.5346,-23.7459 -56.498,-41.6541 l -3.994,-7.9799 -3.2378,4.7584 c -12.3453,18.143 -26.9946,33.8971 -37.341,40.1573 -13.3424,8.0729 -27.3259,9.6013 -43.0288,4.703 -22.9532,-7.1599 -39.6102,-19.487 -44.4795,-32.9174 l -1.0207,-2.8154 -5.8209,7.3154 c -7.3453,9.2312 -18.7121,19.7796 -26.2459,24.3561 -15.484,9.406 -32.2416,8.8778 -53.2263,-1.6777 -8.8878,-4.4706 -20.4499,-12.3361 -25.8872,-17.6106 l -4.6805,-4.5404 -8.8195,6.9757 c -22.4349,17.7448 -34.1265,23.5027 -47.5443,23.4151 -13.6456,-0.089 -27.4081,-6.8785 -41.632,-20.538 -7.2389,-6.9516 -16.1432,-20.0759 -16.1432,-23.7939 0,-2.5583 -0.4874,-2.2873 -5.2294,2.9076 -6.983,7.65 -8.9241,9.5376 -16.4371,15.9843 -19.7358,16.9345 -38.801,25.1703 -59.8335,25.8468 -5.5,0.1769 -11.35,0.1166 -13,-0.134 z m 173.8418,-39.5414 c 2.287,-1.1621 8.6582,-6.6706 14.1582,-12.2412 15.6508,-15.8517 20.3635,-25.3174 32.4076,-65.093 2.6813,-8.8549 10.8097,-40.67 12.5626,-49.1706 0.6197,-3.0048 0.3342,-3.3877 -5.4584,-7.3214 -11.1527,-7.5737 -17.9409,-9.5063 -24.5562,-6.9911 -3.4037,1.2941 -14.025,11.9624 -18.4016,18.4831 -17.4084,25.9372 -38.5805,85.6878 -36.6742,103.5 0.8601,8.036 2.3571,12.5338 5.3591,16.1015 5.2416,6.2293 11.9659,7.1212 20.6029,2.7327 z m 541.0634,0.6651 c 15.226,-8.0957 30.296,-25.5589 37.8507,-43.8616 8.0061,-19.3964 18.4167,-57.1197 21.6898,-78.5942 1.0339,-6.7831 0.9668,-7.6861 -0.7432,-10 -4.3983,-5.9516 -19.5229,-11.1114 -26.8148,-9.1479 -14.9679,4.0304 -39.3009,47.1812 -51.2179,90.827 -8.7959,32.2144 -7.2024,46.5515 5.8302,52.4571 3.1905,1.4458 8.8631,0.7347 13.4052,-1.6804 z m -724.4098,-69.0906 c 20.1271,-5.9771 38.857,-27.5375 46.6877,-53.7432 2.9896,-10.0049 1.3776,-15.9852 -5.1428,-19.0793 -5.1252,-2.4321 -9.5826,-1.9934 -14.7895,1.4555 -4.8883,3.2378 -13.2563,12.9102 -18.9971,21.9583 -7.9655,12.5544 -19.6461,38.4928 -21.2776,47.25 l -0.6987,3.75 h 4.4298 c 2.4364,0 6.8411,-0.7161 9.7882,-1.5913 z M 1543.5,2392.9745 c -10.3108,-2.0787 -20.3868,-9.0715 -22.5602,-15.6569 -3.4212,-10.3663 5.4306,-36.8737 15.3742,-46.0394 5.4107,-4.9874 9.7115,-6.0375 17.5523,-4.2857 11.5974,2.591 20.412,7.8702 23.723,14.2078 4.1718,7.9856 -1.8396,31.2907 -11.4844,44.5225 -5.293,7.2615 -11.9551,9.3987 -22.6049,7.2517 z m 1560,-0.3835 c -9.4152,-2.333 -17.2476,-7.3186 -20.095,-12.7913 -2.4581,-4.7244 -1.7754,-15.4858 1.6469,-25.9595 6.5689,-20.1039 15.0132,-28.8131 26.6144,-27.4496 11.2142,1.318 23.4674,7.7287 26.8782,14.0622 3.5205,6.5371 -0.2989,27.4255 -7.1927,39.3369 -7.5375,13.0238 -14.3385,16.1497 -27.8518,12.8013 z M 365,2224.2809 c 0,-0.5148 1.84739,-5.1761 4.1053,-10.3585 2.25792,-5.1823 42.54219,-98.2134 89.5206,-206.7357 l 85.41531,-197.3134 -2.77061,-3.2873 c -1.52383,-1.808 -7.68918,-8.642 -13.70078,-15.1867 -65.8279,-71.6647 -121.82977,-157.7782 -158.52661,-243.7648 -29.95061,-70.179 -49.41202,-142.9005 -57.4396,-214.6345 -4.07768,-36.438 -4.85671,-53.4271 -4.31036,-94 0.67189,-49.896 2.54532,-72.1472 9.80868,-116.5 19.8745,-121.3612 74.05558,-245.21661 153.32346,-350.49027 C 588.26578,615.5089 754.52968,492.07323 958.5,409.65918 c 146.5575,-59.21644 311.1117,-94.16829 478.5,-101.63495 28.8325,-1.28613 106.1584,-1.3032 134,-0.0296 205.8579,9.41697 403.0323,59.01518 573.4859,144.25747 70.3914,35.20212 126.2541,69.58724 187.0141,115.11264 45.2135,33.87692 73.5575,58.5539 115.5207,100.57512 42.9055,42.96478 77.4156,83.84674 107.6787,127.56012 68.2734,98.61743 111.5464,198.75912 132.6603,307.00002 10.0804,51.6772 13.6322,89.3259 13.6322,144.5 0,51.6748 -3.0921,87.5157 -11.6037,134.5 -22.9521,126.6965 -79.0256,248.3883 -165.1908,358.5 -48.5134,61.9961 -115.0476,127.4951 -180.6974,177.8861 -66.566,51.0942 -142.5168,97.5897 -217.2465,132.9938 -87.8231,41.6072 -169.3561,70.502 -265.5872,94.1226 -75.4531,18.5204 -151.6794,30.8963 -230.6663,37.4502 -82.0489,6.8079 -176.776,6.8063 -256,0 -101.3111,-8.7095 -197.4414,-27.0848 -297.8847,-56.9407 -39.9071,-11.8621 -94.52129,-31.3651 -135.5869,-48.4189 l -16.9716,-7.048 -276.5284,76.9174 c -152.09062,42.3045 -277.7659,77.2192 -279.2784,77.5881 -1.51899,0.3705 -2.75,0.2517 -2.75,-0.2652 z m 1133.5,-479.272 c 50.3317,-2.8213 81.6915,-11.3574 119.6542,-32.5696 45.9849,-25.6948 76.1542,-56.904 111.0545,-114.8826 L 1737,1584.6134 V 1661.3067 1738 h 88.5 88.5 V 1499.5 1261 H 1706.5 1499 v 80.5 80.5 h 85.5 c 47.025,0 85.5,0.1389 85.5,0.3086 0,1.8321 -7.4336,19.9566 -12.3827,30.1914 -12.8308,26.5341 -27.5772,45.94 -49.5632,65.2238 -14.8747,13.0467 -33.541,23.9509 -54.0974,31.6021 -28.3199,10.5407 -68.4751,12.6889 -103.9426,5.5606 -64.4524,-12.9536 -118.7957,-54.6384 -154.3369,-118.3865 -37.2687,-66.8464 -45.8882,-160.5641 -22.0238,-239.461 25.7772,-85.2209 77.6836,-146.168 147.8528,-173.6046 24.7538,-9.679 44.1013,-12.9829 74.9938,-12.8066 48.6808,0.2778 76.0846,8.1798 111.4083,32.1248 23.1899,15.7198 41.0008,34.2886 60.3142,62.8805 l 6.2775,9.2933 91.25,0.037 91.25,0.037 v -99.5 -99.5 h -65.8911 -65.8912 l -11.433,-9.41396 c -65.2123,-53.69598 -117.3185,-74.30673 -198.8115,-78.64037 -80.0484,-4.25682 -157.8077,14.37232 -228.9732,54.85615 -56.2998,32.02723 -106.2478,78.73387 -143.7393,134.41138 -38.6992,57.4713 -65.0912,124.5895 -76.2626,193.9462 -7.1836,44.5987 -7.9213,99.3908 -1.9703,146.3406 13.3914,105.6496 61.4932,203.5808 136.1358,277.1608 59.5386,58.6909 156.4412,102.4035 242.3364,109.3175 26.5994,2.141 33.8196,2.2739 56,1.0306 z"
       id="path854" />
  </g>
</svg>
